{
	"asset":{
		"generator":"Khronos glTF Blender I/O v4.4.55",
		"version":"2.0"
	},
	"scene":0,
	"scenes":[
		{
			"name":"Scene",
			"nodes":[
				0
			]
		}
	],
	"nodes":[
		{
			"mesh":0,
			"name":"Golem"
		}
	],
	"materials":[
		{
			"doubleSided":true,
			"emissiveFactor":[
				1,
				1,
				1
			],
			"emissiveTexture":{
				"index":0
			},
			"name":"Material",
			"normalTexture":{
				"index":1
			},
			"pbrMetallicRoughness":{
				"baseColorTexture":{
					"index":2
				},
				"metallicFactor":0,
				"roughnessFactor":0.5
			}
		}
	],
	"meshes":[
		{
			"name":"Golem.Mesh",
			"primitives":[
				{
					"attributes":{
						"POSITION":0,
						"NORMAL":1,
						"TEXCOORD_0":2
					},
					"indices":3,
					"material":0
				}
			]
		}
	],
	"textures":[
		{
			"sampler":0,
			"source":0
		},
		{
			"sampler":0,
			"source":1
		},
		{
			"sampler":0,
			"source":2
		}
	],
	"images":[
		{
			"mimeType":"image/png",
			"name":"Golem Emission",
			"uri":"Golem%20Emission.png"
		},
		{
			"mimeType":"image/png",
			"name":"Golem Bump Map",
			"uri":"Golem%20Bump%20Map.png"
		},
		{
			"mimeType":"image/png",
			"name":"GolemBaseColor",
			"uri":"GolemBaseColor.png"
		}
	],
	"accessors":[
		{
			"bufferView":0,
			"componentType":5126,
			"count":4980,
			"max":[
				3.775892734527588,
				6.9096760749816895,
				1.7986491918563843
			],
			"min":[
				-3.781550168991089,
				-0.09319707751274109,
				-1.0614303350448608
			],
			"type":"VEC3"
		},
		{
			"bufferView":1,
			"componentType":5126,
			"count":4980,
			"type":"VEC3"
		},
		{
			"bufferView":2,
			"componentType":5126,
			"count":4980,
			"type":"VEC2"
		},
		{
			"bufferView":3,
			"componentType":5123,
			"count":7422,
			"type":"SCALAR"
		}
	],
	"bufferViews":[
		{
			"buffer":0,
			"byteLength":59760,
			"byteOffset":0,
			"target":34962
		},
		{
			"buffer":0,
			"byteLength":59760,
			"byteOffset":59760,
			"target":34962
		},
		{
			"buffer":0,
			"byteLength":39840,
			"byteOffset":119520,
			"target":34962
		},
		{
			"buffer":0,
			"byteLength":14844,
			"byteOffset":159360,
			"target":34963
		}
	],
	"samplers":[
		{
			"magFilter":9729,
			"minFilter":9987
		}
	],
	"buffers":[
		{
			"byteLength":174204,
			"uri":"golem.bin"
		}
	]
}
