{
	"asset":{
		"generator":"Khronos glTF Blender I/O v4.4.55",
		"version":"2.0"
	},
	"scene":0,
	"scenes":[
		{
			"name":"Scene",
			"nodes":[
				36,
				37,
				38,
				39,
				40,
				41,
				42,
				43,
				44,
				45,
				46,
				47,
				48,
				49,
				50,
				51,
				52,
				53,
				54,
				55,
				56,
				57,
				58,
				59,
				60,
				61,
				62,
				63,
				64,
				65,
				66,
				67,
				68,
				69,
				70,
				71,
				72,
				73,
				74,
				75,
				76,
				77,
				78,
				79,
				80,
				81,
				82,
				83,
				84,
				85,
				86,
				87,
				88,
				89,
				90,
				91,
				92,
				93,
				94,
				95,
				96,
				97,
				98,
				99,
				100,
				101,
				102,
				103,
				104,
				105,
				106,
				107,
				108,
				109,
				110,
				111,
				112,
				113,
				114
			]
		}
	],
	"nodes":[
		{
			"name":"spine.006",
			"rotation":[
				-0.06826657801866531,
				-1.6310032213695536e-09,
				-1.516736070072966e-08,
				0.997667133808136
			],
			"translation":[
				6.168676680573526e-15,
				0.04809403792023659,
				1.862645149230957e-09
			]
		},
		{
			"children":[
				0
			],
			"name":"spine.005",
			"rotation":[
				-0.1524098962545395,
				-0.0006458420539274812,
				0.00787175353616476,
				0.9882858395576477
			],
			"scale":[
				1,
				1.0000001192092896,
				1.0000001192092896
			],
			"translation":[
				1.4552132832079678e-09,
				0.039865218102931976,
				-3.352741728690489e-08
			]
		},
		{
			"children":[
				1
			],
			"name":"spine.004",
			"rotation":[
				0.25400108098983765,
				0.0010193658526986837,
				-0.009439777582883835,
				0.9671573638916016
			],
			"translation":[
				-8.635652193333954e-10,
				0.18113498389720917,
				1.581709652143104e-09
			]
		},
		{
			"name":"mittEnd.L",
			"rotation":[
				0.07551944255828857,
				3.325734780901257e-07,
				-0.2677633464336395,
				0.9605205059051514
			],
			"scale":[
				1,
				0.9999999403953552,
				0.9999999403953552
			],
			"translation":[
				9.73232090473175e-08,
				0.09157834202051163,
				2.9802322387695312e-08
			]
		},
		{
			"children":[
				3
			],
			"name":"mittStart.L",
			"rotation":[
				0.008566786535084248,
				-0.0012308041332289577,
				-0.05613785237073898,
				0.9983855485916138
			],
			"scale":[
				0.9999999403953552,
				0.9999998807907104,
				0.9999997615814209
			],
			"translation":[
				7.636845111846924e-08,
				0.05402923375368118,
				1.6763806343078613e-08
			]
		},
		{
			"name":"thumbEnd.L",
			"rotation":[
				-0.3493569791316986,
				-0.0011519596446305513,
				-0.3469672203063965,
				0.8703804612159729
			],
			"scale":[
				1,
				1,
				0.9999999403953552
			],
			"translation":[
				-1.3317912817001343e-07,
				0.06550011038780212,
				4.563480615615845e-08
			]
		},
		{
			"children":[
				5
			],
			"name":"thumbStart.L",
			"rotation":[
				0.5792046189308167,
				0.063275046646595,
				0.10239651799201965,
				0.8062463998794556
			],
			"scale":[
				1,
				0.9999998211860657,
				0.9999998211860657
			],
			"translation":[
				7.636845111846924e-08,
				0.05402923375368118,
				1.6763806343078613e-08
			]
		},
		{
			"children":[
				4,
				6
			],
			"name":"hand.L",
			"rotation":[
				1.9638015146483667e-05,
				-0.013322923332452774,
				-0.05863841623067856,
				0.9981904029846191
			],
			"scale":[
				1.000000238418579,
				1.0000001192092896,
				1.0000001192092896
			],
			"translation":[
				-5.408946890383959e-08,
				0.21789926290512085,
				-7.683411240577698e-09
			]
		},
		{
			"children":[
				7
			],
			"name":"forearm.L",
			"rotation":[
				0.19875255227088928,
				0.07695456594228745,
				0.019696183502674103,
				0.9768252372741699
			],
			"scale":[
				0.9999999403953552,
				1,
				1
			],
			"translation":[
				-1.1548399925231934e-07,
				0.3740595281124115,
				3.725290298461914e-09
			]
		},
		{
			"children":[
				8
			],
			"name":"upper_arm.L",
			"rotation":[
				-0.1764715611934662,
				0.6682405471801758,
				-0.46792954206466675,
				0.5507761240005493
			],
			"scale":[
				1.0000001192092896,
				0.9999997615814209,
				1
			],
			"translation":[
				0.007870176807045937,
				0.19985006749629974,
				-0.02038491703569889
			]
		},
		{
			"children":[
				9
			],
			"name":"shoulder.L",
			"rotation":[
				-0.6057265400886536,
				-0.3435562551021576,
				-0.35655921697616577,
				0.6228402853012085
			],
			"scale":[
				0.9999999403953552,
				0.9999999403953552,
				0.9999999403953552
			],
			"translation":[
				0.01764613389968872,
				0.16447655856609344,
				0.07933255285024643
			]
		},
		{
			"name":"mittEnd.R",
			"rotation":[
				0.07551942765712738,
				-2.724581520396896e-07,
				0.26776328682899475,
				0.9605205059051514
			],
			"scale":[
				1.0000001192092896,
				0.9999999403953552,
				1
			],
			"translation":[
				-6.05359673500061e-09,
				0.09157834202051163,
				-4.470348358154297e-08
			]
		},
		{
			"children":[
				11
			],
			"name":"mittStart.R",
			"rotation":[
				0.008566820062696934,
				0.0012307909782975912,
				0.05613783001899719,
				0.9983855485916138
			],
			"scale":[
				1,
				1,
				0.9999998807907104
			],
			"translation":[
				7.252674549818039e-08,
				0.05402929335832596,
				1.1175870895385742e-08
			]
		},
		{
			"name":"thumbEnd.R",
			"rotation":[
				-0.34935691952705383,
				0.0011520667467266321,
				0.3469672203063965,
				0.8703804612159729
			],
			"scale":[
				0.9999999403953552,
				0.9999999403953552,
				0.9999999403953552
			],
			"translation":[
				1.5133991837501526e-08,
				0.06550011038780212,
				-1.0523945093154907e-07
			]
		},
		{
			"children":[
				13
			],
			"name":"thumbStart.R",
			"rotation":[
				0.5792045593261719,
				-0.06327509135007858,
				-0.10239658504724503,
				0.8062464594841003
			],
			"scale":[
				1,
				0.9999999403953552,
				0.9999999403953552
			],
			"translation":[
				7.252674549818039e-08,
				0.05402929335832596,
				1.1175870895385742e-08
			]
		},
		{
			"children":[
				12,
				14
			],
			"name":"hand.R",
			"rotation":[
				1.960816007340327e-05,
				0.013322933577001095,
				0.058638446033000946,
				0.9981904029846191
			],
			"scale":[
				1.0000001192092896,
				1,
				1
			],
			"translation":[
				1.430744305253029e-07,
				0.21789929270744324,
				-2.9802322387695312e-08
			]
		},
		{
			"children":[
				15
			],
			"name":"forearm.R",
			"rotation":[
				0.1990175098180771,
				-0.08280789107084274,
				-0.023654824122786522,
				0.9762045741081238
			],
			"scale":[
				0.9999999403953552,
				0.9999998807907104,
				1
			],
			"translation":[
				4.377216100692749e-08,
				0.3714594542980194,
				9.313225746154785e-09
			]
		},
		{
			"children":[
				16
			],
			"name":"upper_arm.R",
			"rotation":[
				-0.18681779503822327,
				-0.6636459231376648,
				0.4658084213733673,
				0.5547033548355103
			],
			"scale":[
				0.9999999403953552,
				0.9999997615814209,
				0.9999999403953552
			],
			"translation":[
				-0.007536604069173336,
				0.2039046436548233,
				-0.020385216921567917
			]
		},
		{
			"children":[
				17
			],
			"name":"shoulder.R",
			"rotation":[
				-0.6022498607635498,
				0.34960421919822693,
				0.3584754168987274,
				0.6217454075813293
			],
			"scale":[
				0.9999999403953552,
				1,
				1
			],
			"translation":[
				-0.016504503786563873,
				0.16459497809410095,
				0.07933266460895538
			]
		},
		{
			"children":[
				2,
				10,
				18
			],
			"name":"spine.003",
			"rotation":[
				0.025932833552360535,
				-4.6592496801167727e-05,
				0.0017332079587504268,
				0.9996622204780579
			],
			"scale":[
				1,
				0.9999998807907104,
				0.9999998807907104
			],
			"translation":[
				1.7077364374775229e-22,
				0.1733861118555069,
				0
			]
		},
		{
			"children":[
				19
			],
			"name":"spine.002",
			"rotation":[
				-0.06781939417123795,
				-2.0888064566318594e-14,
				-3.398973175467346e-15,
				0.997697651386261
			],
			"scale":[
				1,
				1.0000001192092896,
				1
			],
			"translation":[
				-8.470329472543003e-22,
				0.1357942521572113,
				3.725290298461914e-09
			]
		},
		{
			"children":[
				20
			],
			"name":"spine.001",
			"rotation":[
				-0.09923911094665527,
				-1.1862080384617002e-07,
				-1.1830230128850872e-08,
				0.9950636625289917
			],
			"scale":[
				1,
				0.9999999403953552,
				1.0000001192092896
			],
			"translation":[
				-1.7763568394002505e-15,
				0.15221953392028809,
				1.862645149230957e-08
			]
		},
		{
			"name":"pelvis.L",
			"rotation":[
				-0.15245521068572998,
				-0.7933307886123657,
				-0.28550392389297485,
				0.5156270265579224
			],
			"scale":[
				1,
				1.0000001192092896,
				1
			],
			"translation":[
				-7.105427357601002e-15,
				1.4901161193847656e-08,
				1.4901161193847656e-08
			]
		},
		{
			"name":"pelvis.R",
			"rotation":[
				-0.15245528519153595,
				0.7933306694030762,
				0.28550389409065247,
				0.5156272053718567
			],
			"scale":[
				1.0000001192092896,
				1,
				1
			],
			"translation":[
				-7.105427357601002e-15,
				1.4901161193847656e-08,
				1.4901161193847656e-08
			]
		},
		{
			"name":"toe.L",
			"rotation":[
				6.698701895402337e-07,
				0.9070411324501038,
				-0.42104196548461914,
				1.766073580711236e-07
			],
			"scale":[
				1,
				0.9999997615814209,
				1
			],
			"translation":[
				2.2684054634680706e-09,
				0.12389177083969116,
				-6.913882799608473e-09
			]
		},
		{
			"name":"heel.02.L",
			"rotation":[
				0.6394325494766235,
				0.6394339799880981,
				-0.30186906456947327,
				0.30186957120895386
			],
			"scale":[
				0.9999998807907104,
				0.9999997615814209,
				0.9999999403953552
			],
			"translation":[
				-0.03800012916326523,
				0.0824301466345787,
				0.0804048478603363
			]
		},
		{
			"children":[
				24,
				25
			],
			"name":"foot.L",
			"rotation":[
				-0.3769528567790985,
				-0.011626271530985832,
				0.027793074026703835,
				0.9257423877716064
			],
			"scale":[
				0.9999999403953552,
				1,
				0.9999999403953552
			],
			"translation":[
				-5.9371814131736755e-09,
				0.4372803866863251,
				-1.2099917512387037e-08
			]
		},
		{
			"children":[
				26
			],
			"name":"shin.L",
			"rotation":[
				0.037341807037591934,
				0.005515610333532095,
				0.002581421285867691,
				0.999284029006958
			],
			"scale":[
				0.9999998807907104,
				0.9999997615814209,
				0.9999999403953552
			],
			"translation":[
				-8.061761036515236e-09,
				0.5234885811805725,
				-6.577465683221817e-09
			]
		},
		{
			"children":[
				27
			],
			"name":"thigh.L",
			"rotation":[
				0.9921122789382935,
				0.03221605718135834,
				-0.006822176743298769,
				0.12094983458518982
			],
			"scale":[
				1.0000004768371582,
				1.0000001192092896,
				1.0000054836273193
			],
			"translation":[
				0.09799998998641968,
				0.07081852108240128,
				0.025942305102944374
			]
		},
		{
			"name":"toe.R",
			"rotation":[
				7.080313935148297e-07,
				-0.9070411324501038,
				0.4210420250892639,
				1.7660742912539718e-07
			],
			"scale":[
				1,
				1.0000001192092896,
				0.9999998807907104
			],
			"translation":[
				-1.8001191648409076e-08,
				0.12389173358678818,
				2.6049082890722275e-09
			]
		},
		{
			"name":"heel.02.R",
			"rotation":[
				0.6394324898719788,
				-0.6394340991973877,
				0.3018689751625061,
				0.30186954140663147
			],
			"translation":[
				0.039144694805145264,
				0.08243013918399811,
				0.0804048553109169
			]
		},
		{
			"children":[
				29,
				30
			],
			"name":"foot.R",
			"rotation":[
				-0.3769526779651642,
				0.011626292020082474,
				-0.02779303304851055,
				0.9257424473762512
			],
			"scale":[
				1,
				0.9999999403953552,
				0.9999998807907104
			],
			"translation":[
				-7.159542292356491e-09,
				0.43728044629096985,
				-1.0841176845133305e-09
			]
		},
		{
			"children":[
				31
			],
			"name":"shin.R",
			"rotation":[
				0.03734179586172104,
				-0.0055155521258711815,
				-0.0025814101099967957,
				0.999284029006958
			],
			"scale":[
				0.9999998807907104,
				0.9999997615814209,
				0.9999999403953552
			],
			"translation":[
				1.2514647096395493e-09,
				0.5234883427619934,
				-7.043126970529556e-09
			]
		},
		{
			"children":[
				32
			],
			"name":"thigh.R",
			"rotation":[
				0.9921122789382935,
				-0.03221607953310013,
				0.006822334602475166,
				0.12094980478286743
			],
			"scale":[
				1.0000004768371582,
				1.000000238418579,
				1.0000059604644775
			],
			"translation":[
				-0.09800000488758087,
				0.07081852108240128,
				0.025942256674170494
			]
		},
		{
			"children":[
				21,
				22,
				23,
				28,
				33
			],
			"name":"spine",
			"rotation":[
				0.12581965327262878,
				1.1826196555375645e-07,
				1.4998871478155706e-08,
				0.9920531511306763
			],
			"scale":[
				1,
				1,
				1.0000001192092896
			],
			"translation":[
				0,
				1.0098999738693237,
				-0.08281505107879639
			]
		},
		{
			"mesh":0,
			"name":"Hunter",
			"skin":0
		},
		{
			"children":[
				35,
				34
			],
			"name":"metarig"
		},
		{
			"name":"WGT-rig_spine_fk"
		},
		{
			"name":"WGT-rig_spine_fk.001"
		},
		{
			"name":"WGT-rig_spine_fk.002"
		},
		{
			"name":"WGT-rig_spine_fk.003"
		},
		{
			"name":"WGT-rig_tweak_spine"
		},
		{
			"name":"WGT-rig_tweak_spine.001"
		},
		{
			"name":"WGT-rig_tweak_spine.002"
		},
		{
			"name":"WGT-rig_tweak_spine.003"
		},
		{
			"name":"WGT-rig_tweak_spine.004"
		},
		{
			"name":"WGT-rig_torso"
		},
		{
			"name":"WGT-rig_hips"
		},
		{
			"name":"WGT-rig_chest"
		},
		{
			"name":"WGT-rig_shoulder.L"
		},
		{
			"name":"WGT-rig_upper_arm_parent.L"
		},
		{
			"name":"WGT-rig_upper_arm_fk.L"
		},
		{
			"name":"WGT-rig_forearm_fk.L"
		},
		{
			"name":"WGT-rig_hand_fk.L"
		},
		{
			"name":"WGT-rig_upper_arm_ik.L"
		},
		{
			"name":"WGT-rig_upper_arm_ik_target.L"
		},
		{
			"name":"WGT-rig_hand_ik.L"
		},
		{
			"name":"WGT-rig_VIS_upper_arm_ik_pole.L"
		},
		{
			"name":"WGT-rig_upper_arm_tweak.L"
		},
		{
			"name":"WGT-rig_upper_arm_tweak.L.001"
		},
		{
			"name":"WGT-rig_forearm_tweak.L"
		},
		{
			"name":"WGT-rig_forearm_tweak.L.001"
		},
		{
			"name":"WGT-rig_hand_tweak.L"
		},
		{
			"name":"WGT-rig_shoulder.R"
		},
		{
			"name":"WGT-rig_upper_arm_parent.R"
		},
		{
			"name":"WGT-rig_upper_arm_fk.R"
		},
		{
			"name":"WGT-rig_forearm_fk.R"
		},
		{
			"name":"WGT-rig_hand_fk.R"
		},
		{
			"name":"WGT-rig_upper_arm_ik.R"
		},
		{
			"name":"WGT-rig_upper_arm_ik_target.R"
		},
		{
			"name":"WGT-rig_hand_ik.R"
		},
		{
			"name":"WGT-rig_VIS_upper_arm_ik_pole.R"
		},
		{
			"name":"WGT-rig_upper_arm_tweak.R"
		},
		{
			"name":"WGT-rig_upper_arm_tweak.R.001"
		},
		{
			"name":"WGT-rig_forearm_tweak.R"
		},
		{
			"name":"WGT-rig_forearm_tweak.R.001"
		},
		{
			"name":"WGT-rig_hand_tweak.R"
		},
		{
			"name":"WGT-rig_neck"
		},
		{
			"name":"WGT-rig_head"
		},
		{
			"name":"WGT-rig_tweak_spine.005"
		},
		{
			"name":"WGT-rig_thigh_parent.L"
		},
		{
			"name":"WGT-rig_thigh_fk.L"
		},
		{
			"name":"WGT-rig_shin_fk.L"
		},
		{
			"name":"WGT-rig_foot_fk.L"
		},
		{
			"name":"WGT-rig_toe_fk.L"
		},
		{
			"name":"WGT-rig_thigh_ik.L"
		},
		{
			"name":"WGT-rig_thigh_ik_target.L"
		},
		{
			"name":"WGT-rig_foot_ik.L"
		},
		{
			"name":"WGT-rig_VIS_thigh_ik_pole.L"
		},
		{
			"name":"WGT-rig_thigh_tweak.L"
		},
		{
			"name":"WGT-rig_thigh_tweak.L.001"
		},
		{
			"name":"WGT-rig_shin_tweak.L"
		},
		{
			"name":"WGT-rig_shin_tweak.L.001"
		},
		{
			"name":"WGT-rig_foot_tweak.L"
		},
		{
			"name":"WGT-rig_foot_spin_ik.L"
		},
		{
			"name":"WGT-rig_foot_heel_ik.L"
		},
		{
			"name":"WGT-rig_toe_ik.L"
		},
		{
			"name":"WGT-rig_thigh_parent.R"
		},
		{
			"name":"WGT-rig_thigh_fk.R"
		},
		{
			"name":"WGT-rig_shin_fk.R"
		},
		{
			"name":"WGT-rig_foot_fk.R"
		},
		{
			"name":"WGT-rig_toe_fk.R"
		},
		{
			"name":"WGT-rig_thigh_ik.R"
		},
		{
			"name":"WGT-rig_thigh_ik_target.R"
		},
		{
			"name":"WGT-rig_foot_ik.R"
		},
		{
			"name":"WGT-rig_VIS_thigh_ik_pole.R"
		},
		{
			"name":"WGT-rig_thigh_tweak.R"
		},
		{
			"name":"WGT-rig_thigh_tweak.R.001"
		},
		{
			"name":"WGT-rig_shin_tweak.R"
		},
		{
			"name":"WGT-rig_shin_tweak.R.001"
		},
		{
			"name":"WGT-rig_foot_tweak.R"
		},
		{
			"name":"WGT-rig_foot_spin_ik.R"
		},
		{
			"name":"WGT-rig_foot_heel_ik.R"
		},
		{
			"name":"WGT-rig_toe_ik.R"
		},
		{
			"name":"WGT-rig_root"
		}
	],
	"materials":[
		{
			"doubleSided":true,
			"name":"hunterMat1",
			"pbrMetallicRoughness":{
				"baseColorTexture":{
					"index":0
				},
				"metallicFactor":0,
				"roughnessFactor":0.5527864098548889
			}
		}
	],
	"meshes":[
		{
			"name":"Mesh",
			"primitives":[
				{
					"attributes":{
						"POSITION":0,
						"NORMAL":1,
						"TEXCOORD_0":2,
						"COLOR_0":3,
						"COLOR_1":4,
						"JOINTS_0":5,
						"WEIGHTS_0":6
					},
					"indices":7,
					"material":0
				}
			]
		}
	],
	"textures":[
		{
			"sampler":0,
			"source":0
		}
	],
	"images":[
		{
			"mimeType":"image/png",
			"name":"HunterModelTexture",
			"uri":"HunterModelTexture.png"
		}
	],
	"skins":[
		{
			"inverseBindMatrices":8,
			"joints":[
				34,
				21,
				20,
				19,
				2,
				1,
				0,
				10,
				9,
				8,
				7,
				4,
				3,
				6,
				5,
				18,
				17,
				16,
				15,
				12,
				11,
				14,
				13,
				22,
				23,
				28,
				27,
				26,
				24,
				25,
				33,
				32,
				31,
				29,
				30
			],
			"name":"metarig"
		}
	],
	"accessors":[
		{
			"bufferView":0,
			"componentType":5126,
			"count":3098,
			"max":[
				0.6013553738594055,
				2.0735058784484863,
				0.19588182866573334
			],
			"min":[
				-0.6013553738594055,
				-0.0003669461002573371,
				-0.22106285393238068
			],
			"type":"VEC3"
		},
		{
			"bufferView":1,
			"componentType":5126,
			"count":3098,
			"type":"VEC3"
		},
		{
			"bufferView":2,
			"componentType":5126,
			"count":3098,
			"type":"VEC2"
		},
		{
			"bufferView":3,
			"componentType":5121,
			"count":3098,
			"normalized":true,
			"type":"VEC4"
		},
		{
			"bufferView":4,
			"componentType":5123,
			"count":3098,
			"normalized":true,
			"type":"VEC4"
		},
		{
			"bufferView":5,
			"componentType":5121,
			"count":3098,
			"type":"VEC4"
		},
		{
			"bufferView":6,
			"componentType":5126,
			"count":3098,
			"type":"VEC4"
		},
		{
			"bufferView":7,
			"componentType":5123,
			"count":5988,
			"type":"SCALAR"
		},
		{
			"bufferView":8,
			"componentType":5126,
			"count":35,
			"type":"MAT4"
		}
	],
	"bufferViews":[
		{
			"buffer":0,
			"byteLength":37176,
			"byteOffset":0,
			"target":34962
		},
		{
			"buffer":0,
			"byteLength":37176,
			"byteOffset":37176,
			"target":34962
		},
		{
			"buffer":0,
			"byteLength":24784,
			"byteOffset":74352,
			"target":34962
		},
		{
			"buffer":0,
			"byteLength":12392,
			"byteOffset":99136,
			"target":34962
		},
		{
			"buffer":0,
			"byteLength":24784,
			"byteOffset":111528,
			"target":34962
		},
		{
			"buffer":0,
			"byteLength":12392,
			"byteOffset":136312,
			"target":34962
		},
		{
			"buffer":0,
			"byteLength":49568,
			"byteOffset":148704,
			"target":34962
		},
		{
			"buffer":0,
			"byteLength":11976,
			"byteOffset":198272,
			"target":34963
		},
		{
			"buffer":0,
			"byteLength":2240,
			"byteOffset":210248
		}
	],
	"samplers":[
		{
			"magFilter":9729,
			"minFilter":9987
		}
	],
	"buffers":[
		{
			"byteLength":212488,
			"uri":"HunterBabylonJS.bin"
		}
	]
}
