{
	"asset":{
		"generator":"Khronos glTF Blender I/O v4.4.55",
		"version":"2.0"
	},
	"scene":0,
	"scenes":[
		{
			"name":"Scene",
			"nodes":[
				47
			]
		}
	],
	"nodes":[
		{
			"name":"spine.006_end",
			"rotation":[
				1.3969839507410597e-08,
				2.9698465908722937e-15,
				2.6645352591003757e-15,
				1
			],
			"scale":[
				1,
				0.9999999403953552,
				1
			],
			"translation":[
				2.220446049250313e-16,
				0.22407327592372894,
				1.8626449271863521e-09
			]
		},
		{
			"children":[
				0
			],
			"name":"spine.006",
			"rotation":[
				-0.06826663762331009,
				-1.9186228161771623e-09,
				-1.4921932134370763e-08,
				0.9976670742034912
			],
			"translation":[
				4.233019490484935e-11,
				0.048093512654304504,
				2.0489096641540527e-08
			]
		},
		{
			"children":[
				1
			],
			"name":"spine.005",
			"rotation":[
				-0.15241023898124695,
				-0.000645813241135329,
				0.007871766574680805,
				0.9882857799530029
			],
			"translation":[
				1.1060036220200686e-09,
				0.039865199476480484,
				-1.3783521524146636e-07
			]
		},
		{
			"children":[
				2
			],
			"name":"spine.004",
			"rotation":[
				0.2540014684200287,
				0.0010193391935899854,
				-0.009439792484045029,
				0.967157244682312
			],
			"scale":[
				0.9999999403953552,
				1,
				1
			],
			"translation":[
				-1.0481926437932998e-09,
				0.18113499879837036,
				5.3074638017847064e-09
			]
		},
		{
			"name":"mittEnd.L_end",
			"rotation":[
				-3.725290298461914e-09,
				-6.277114152908325e-07,
				-4.6659260988235474e-07,
				1
			],
			"translation":[
				-1.862645149230957e-09,
				0.06636545062065125,
				5.21540641784668e-08
			]
		},
		{
			"children":[
				4
			],
			"name":"mittEnd.L",
			"rotation":[
				0.07551945000886917,
				1.2653304111154284e-06,
				-0.2677626609802246,
				0.9605206847190857
			],
			"scale":[
				0.9999999403953552,
				0.9999999403953552,
				1.0000001192092896
			],
			"translation":[
				-9.778887033462524e-09,
				0.09157849848270416,
				3.725290298461914e-09
			]
		},
		{
			"children":[
				5
			],
			"name":"mittStart.L",
			"rotation":[
				0.008566895499825478,
				-0.001231396454386413,
				-0.05613820254802704,
				0.9983855485916138
			],
			"scale":[
				0.9999999403953552,
				0.9999999403953552,
				0.9999999403953552
			],
			"translation":[
				-2.514570951461792e-08,
				0.054029278457164764,
				2.421438694000244e-08
			]
		},
		{
			"name":"thumbEnd.L_end",
			"rotation":[
				1.123407855629921e-06,
				-4.038214683532715e-06,
				-1.8721912056207657e-06,
				1
			],
			"translation":[
				-1.1175870895385742e-07,
				0.05575229227542877,
				7.450580596923828e-09
			]
		},
		{
			"children":[
				7
			],
			"name":"thumbEnd.L",
			"rotation":[
				-0.349351704120636,
				-0.0011605193139985204,
				-0.3469715714454651,
				0.8703808188438416
			],
			"scale":[
				1,
				1,
				0.9999999403953552
			],
			"translation":[
				-1.979060471057892e-08,
				0.06550019979476929,
				4.470348358154297e-08
			]
		},
		{
			"children":[
				8
			],
			"name":"thumbStart.L",
			"rotation":[
				0.5792033076286316,
				0.06328684091567993,
				0.1024046316742897,
				0.8062453269958496
			],
			"translation":[
				-2.514570951461792e-08,
				0.054029278457164764,
				2.421438694000244e-08
			]
		},
		{
			"children":[
				6,
				9
			],
			"name":"hand.L",
			"rotation":[
				1.9544653696357273e-05,
				-0.013322657905519009,
				-0.0586383156478405,
				0.9981904625892639
			],
			"scale":[
				1,
				1,
				0.9999999403953552
			],
			"translation":[
				-4.221510607749224e-08,
				0.2178991734981537,
				7.916241884231567e-09
			]
		},
		{
			"children":[
				10
			],
			"name":"forearm.L",
			"rotation":[
				0.19875262677669525,
				0.07695440948009491,
				0.019696203991770744,
				0.9768252372741699
			],
			"translation":[
				-2.60770320892334e-08,
				0.3740597069263458,
				-5.587935447692871e-09
			]
		},
		{
			"children":[
				11
			],
			"name":"upper_arm.L",
			"rotation":[
				-0.17647166550159454,
				0.668240487575531,
				-0.4679296612739563,
				0.5507760643959045
			],
			"translation":[
				0.007870171219110489,
				0.19985006749629974,
				-0.02038492262363434
			]
		},
		{
			"children":[
				12
			],
			"name":"shoulder.L",
			"rotation":[
				-0.6057265400886536,
				-0.3435562551021576,
				-0.35655927658081055,
				0.6228403449058533
			],
			"scale":[
				0.9999998807907104,
				0.9999999403953552,
				1
			],
			"translation":[
				0.01764613203704357,
				0.1644764393568039,
				0.07933256775140762
			]
		},
		{
			"name":"mittEnd.R_end",
			"rotation":[
				1.6763808119435453e-08,
				-1.955777406692505e-08,
				-3.818422555923462e-08,
				1
			],
			"scale":[
				1,
				0.9999999403953552,
				1
			],
			"translation":[
				1.862645149230957e-09,
				0.06636542081832886,
				2.2351741790771484e-08
			]
		},
		{
			"children":[
				14
			],
			"name":"mittEnd.R",
			"rotation":[
				0.07551948726177216,
				-4.751050042273164e-08,
				0.2677634358406067,
				0.9605204463005066
			],
			"scale":[
				0.9999999403953552,
				0.9999999403953552,
				0.9999999403953552
			],
			"translation":[
				-7.310882210731506e-08,
				0.0915786400437355,
				-6.332993507385254e-08
			]
		},
		{
			"children":[
				15
			],
			"name":"mittStart.R",
			"rotation":[
				0.008566820062696934,
				0.0012307497672736645,
				0.05613776668906212,
				0.9983855485916138
			],
			"scale":[
				1,
				0.9999999403953552,
				1
			],
			"translation":[
				4.423782229423523e-09,
				0.05402934551239014,
				8.940696716308594e-08
			]
		},
		{
			"name":"thumbEnd.R_end",
			"rotation":[
				7.655471563339233e-07,
				4.470348358154297e-08,
				-7.844064384698868e-07,
				1
			],
			"translation":[
				2.2351741790771484e-08,
				0.055752500891685486,
				-3.725290298461914e-08
			]
		},
		{
			"children":[
				17
			],
			"name":"thumbEnd.R",
			"rotation":[
				-0.3493576943874359,
				0.0011516393860802054,
				0.3469676971435547,
				0.8703799843788147
			],
			"translation":[
				1.4202669262886047e-08,
				0.0655001550912857,
				-8.335337042808533e-08
			]
		},
		{
			"children":[
				18
			],
			"name":"thumbStart.R",
			"rotation":[
				0.5792045593261719,
				-0.06327468901872635,
				-0.10239627957344055,
				0.8062465190887451
			],
			"scale":[
				1.0000001192092896,
				1.0000001192092896,
				1
			],
			"translation":[
				4.423782229423523e-09,
				0.05402934551239014,
				8.940696716308594e-08
			]
		},
		{
			"children":[
				16,
				19
			],
			"name":"hand.R",
			"rotation":[
				1.963807335414458e-05,
				0.013322982005774975,
				0.05863847956061363,
				0.9981904029846191
			],
			"scale":[
				1,
				0.9999999403953552,
				1
			],
			"translation":[
				1.3355747796595097e-07,
				0.21789944171905518,
				-7.497146725654602e-08
			]
		},
		{
			"children":[
				20
			],
			"name":"forearm.R",
			"rotation":[
				0.19901762902736664,
				-0.0828079804778099,
				-0.023654768243432045,
				0.976204514503479
			],
			"scale":[
				1,
				0.9999998807907104,
				1
			],
			"translation":[
				-7.078051567077637e-08,
				0.3714594542980194,
				-3.725290298461914e-09
			]
		},
		{
			"children":[
				21
			],
			"name":"upper_arm.R",
			"rotation":[
				-0.18681766092777252,
				-0.6636461019515991,
				0.4658082127571106,
				0.5547032952308655
			],
			"scale":[
				1,
				1.0000001192092896,
				1
			],
			"translation":[
				-0.007536612451076508,
				0.2039046585559845,
				-0.020385289564728737
			]
		},
		{
			"children":[
				22
			],
			"name":"shoulder.R",
			"rotation":[
				-0.6022499799728394,
				0.34960418939590454,
				0.3584754168987274,
				0.6217453479766846
			],
			"translation":[
				-0.016504507511854172,
				0.1645948588848114,
				0.07933268696069717
			]
		},
		{
			"children":[
				3,
				13,
				23
			],
			"name":"spine.003",
			"rotation":[
				0.025932811200618744,
				-4.659283149521798e-05,
				0.0017332079587504268,
				0.9996622204780579
			],
			"scale":[
				1,
				0.9999999403953552,
				0.9999999403953552
			],
			"translation":[
				-1.4293680984916318e-21,
				0.17338627576828003,
				3.725290298461914e-09
			]
		},
		{
			"children":[
				24
			],
			"name":"spine.002",
			"rotation":[
				-0.06781934946775436,
				-4.5229807719244716e-14,
				-6.478851675528578e-15,
				0.997697651386261
			],
			"scale":[
				1,
				1.0000001192092896,
				1.0000001192092896
			],
			"translation":[
				-1.1816971893737795e-14,
				0.1357940137386322,
				-6.332993507385254e-08
			]
		},
		{
			"children":[
				25
			],
			"name":"spine.001",
			"rotation":[
				-0.09923908114433289,
				-1.1862079674074266e-07,
				-1.1830228352494032e-08,
				0.9950636625289917
			],
			"translation":[
				1.0214053520617335e-14,
				0.152219757437706,
				1.862645149230957e-08
			]
		},
		{
			"name":"pelvis.L_end",
			"rotation":[
				4.0978193283081055e-08,
				5.21540641784668e-08,
				-3.725290298461914e-09,
				1
			],
			"translation":[
				-1.862645149230957e-09,
				0.20733827352523804,
				4.540197551250458e-08
			]
		},
		{
			"children":[
				27
			],
			"name":"pelvis.L",
			"rotation":[
				-0.15245522558689117,
				-0.7933307886123657,
				-0.285504013299942,
				0.5156269669532776
			],
			"scale":[
				1.0000001192092896,
				1.0000001192092896,
				1.0000001192092896
			],
			"translation":[
				4.440909039159571e-16,
				1.3597309589385986e-07,
				1.4901161193847656e-08
			]
		},
		{
			"name":"pelvis.R_end",
			"rotation":[
				0,
				-7.450580596923828e-09,
				2.60770320892334e-08,
				1
			],
			"translation":[
				-1.0244548320770264e-08,
				0.20733819901943207,
				-1.210719347000122e-08
			]
		},
		{
			"children":[
				29
			],
			"name":"pelvis.R",
			"rotation":[
				-0.15245522558689117,
				0.7933306694030762,
				0.28550395369529724,
				0.5156272053718567
			],
			"scale":[
				1,
				1.0000001192092896,
				1.0000001192092896
			],
			"translation":[
				4.440909039159571e-16,
				1.3597309589385986e-07,
				1.4901161193847656e-08
			]
		},
		{
			"name":"toe.L_end",
			"rotation":[
				1.9095507397537403e-08,
				3.417931537796903e-08,
				1.4894884642086686e-13,
				1
			],
			"scale":[
				1,
				0.9999999403953552,
				0.9999999403953552
			],
			"translation":[
				-1.982706265835077e-08,
				0.18405677378177643,
				2.120259523508139e-10
			]
		},
		{
			"children":[
				31
			],
			"name":"toe.L",
			"rotation":[
				-1.5469400977963232e-06,
				-0.9070407152175903,
				0.42104291915893555,
				2.4472885797877098e-06
			],
			"scale":[
				1,
				0.9999995827674866,
				1
			],
			"translation":[
				-2.7881452702160914e-09,
				0.12389164417982101,
				3.931958048042361e-08
			]
		},
		{
			"name":"heel.02.L_end",
			"rotation":[
				-2.1547368334040584e-08,
				1.3560057823269744e-06,
				1.1481049000394705e-08,
				1
			],
			"translation":[
				-4.60769200572031e-09,
				0.07999996095895767,
				2.1094237467877974e-15
			]
		},
		{
			"children":[
				33
			],
			"name":"heel.02.L",
			"rotation":[
				0.6394320726394653,
				0.6394332051277161,
				-0.30187052488327026,
				0.30187076330184937
			],
			"scale":[
				0.9999998807907104,
				0.9999996423721313,
				1
			],
			"translation":[
				-0.03800005838274956,
				0.08243045210838318,
				0.08040471374988556
			]
		},
		{
			"children":[
				32,
				34
			],
			"name":"foot.L",
			"rotation":[
				-0.376951664686203,
				-0.011625850573182106,
				0.027793429791927338,
				0.9257428646087646
			],
			"scale":[
				1,
				0.9999998211860657,
				0.9999998211860657
			],
			"translation":[
				1.57160684466362e-09,
				0.4372803866863251,
				2.2482709027826786e-09
			]
		},
		{
			"children":[
				35
			],
			"name":"shin.L",
			"rotation":[
				0.03734169155359268,
				0.005515539087355137,
				0.002581422682851553,
				0.999284029006958
			],
			"scale":[
				1,
				0.9999998807907104,
				0.9999999403953552
			],
			"translation":[
				-3.914465196430683e-09,
				0.5234888792037964,
				-4.598405212163925e-09
			]
		},
		{
			"children":[
				36
			],
			"name":"thigh.L",
			"rotation":[
				0.9921122193336487,
				0.032216012477874756,
				-0.00682268338277936,
				0.12094990909099579
			],
			"scale":[
				1.000000238418579,
				1,
				1.0000040531158447
			],
			"translation":[
				0.09799998998641968,
				0.07081850618124008,
				0.025942331179976463
			]
		},
		{
			"name":"toe.R_end",
			"rotation":[
				-4.656350860443581e-09,
				-1.7814830499673917e-08,
				1.1978411968913139e-13,
				1
			],
			"translation":[
				-9.352861596312323e-09,
				0.18405741453170776,
				4.4417447497835383e-10
			]
		},
		{
			"children":[
				38
			],
			"name":"toe.R",
			"rotation":[
				-1.5574129292872385e-06,
				0.9070411920547485,
				-0.42104190587997437,
				2.4472899440297624e-06
			],
			"translation":[
				-1.2499449475456004e-08,
				0.12389186024665833,
				-4.937632525070512e-09
			]
		},
		{
			"name":"heel.02.R_end",
			"rotation":[
				-2.115487518494774e-08,
				-1.4901129929967283e-07,
				-3.736193576742153e-08,
				1
			],
			"translation":[
				7.383108013847561e-12,
				0.07999999821186066,
				-2.2648549702353193e-14
			]
		},
		{
			"children":[
				40
			],
			"name":"heel.02.R",
			"rotation":[
				0.6394332647323608,
				-0.6394331455230713,
				0.30186909437179565,
				0.30186977982521057
			],
			"scale":[
				1.0000001192092896,
				0.9999998807907104,
				1
			],
			"translation":[
				0.039144616574048996,
				0.08243036270141602,
				0.08040475100278854
			]
		},
		{
			"children":[
				39,
				41
			],
			"name":"foot.R",
			"rotation":[
				-0.376952201128006,
				0.011625966057181358,
				-0.027793418616056442,
				0.9257426261901855
			],
			"scale":[
				1,
				1,
				0.9999998807907104
			],
			"translation":[
				1.2048985809087753e-08,
				0.4372811019420624,
				-1.1641532182693481e-09
			]
		},
		{
			"children":[
				42
			],
			"name":"shin.R",
			"rotation":[
				0.03734179586172104,
				-0.005515535362064838,
				-0.002581346547231078,
				0.999284029006958
			],
			"scale":[
				1,
				0.9999998211860657,
				0.9999998807907104
			],
			"translation":[
				-4.787580110132694e-09,
				0.5234884023666382,
				-8.847564458847046e-09
			]
		},
		{
			"children":[
				43
			],
			"name":"thigh.R",
			"rotation":[
				0.9921122193336487,
				-0.03221606835722923,
				0.006822322495281696,
				0.1209501326084137
			],
			"scale":[
				1,
				0.9999998807907104,
				1.0000003576278687
			],
			"translation":[
				-0.09800000488758087,
				0.07081850618124008,
				0.025942275300621986
			]
		},
		{
			"children":[
				26,
				28,
				30,
				37,
				44
			],
			"name":"spine",
			"rotation":[
				0.125819593667984,
				1.1826198687003853e-07,
				1.4998869701798867e-08,
				0.9920531511306763
			],
			"scale":[
				1,
				1,
				0.9999999403953552
			],
			"translation":[
				0,
				1.0098999738693237,
				-0.08281505107879639
			]
		},
		{
			"mesh":0,
			"name":"Hunter",
			"skin":0
		},
		{
			"children":[
				46,
				45
			],
			"name":"metarig"
		}
	],
	"materials":[
		{
			"doubleSided":true,
			"name":"hunterMat1",
			"pbrMetallicRoughness":{
				"baseColorFactor":[
					0.1921534240245819,
					0,
					0,
					1
				],
				"roughnessFactor":0.5
			}
		}
	],
	"meshes":[
		{
			"name":"Mesh",
			"primitives":[
				{
					"attributes":{
						"POSITION":0,
						"NORMAL":1,
						"TEXCOORD_0":2,
						"COLOR_0":3,
						"COLOR_1":4,
						"JOINTS_0":5,
						"WEIGHTS_0":6
					},
					"indices":7,
					"material":0
				}
			]
		}
	],
	"skins":[
		{
			"inverseBindMatrices":8,
			"joints":[
				45,
				26,
				25,
				24,
				3,
				2,
				1,
				0,
				13,
				12,
				11,
				10,
				6,
				5,
				4,
				9,
				8,
				7,
				23,
				22,
				21,
				20,
				16,
				15,
				14,
				19,
				18,
				17,
				28,
				27,
				30,
				29,
				37,
				36,
				35,
				32,
				31,
				34,
				33,
				44,
				43,
				42,
				39,
				38,
				41,
				40
			],
			"name":"metarig"
		}
	],
	"accessors":[
		{
			"bufferView":0,
			"componentType":5126,
			"count":3098,
			"max":[
				0.6013553738594055,
				2.0735058784484863,
				0.19588153064250946
			],
			"min":[
				-0.6013553738594055,
				-0.00036692622234113514,
				-0.22106313705444336
			],
			"type":"VEC3"
		},
		{
			"bufferView":1,
			"componentType":5126,
			"count":3098,
			"type":"VEC3"
		},
		{
			"bufferView":2,
			"componentType":5126,
			"count":3098,
			"type":"VEC2"
		},
		{
			"bufferView":3,
			"componentType":5121,
			"count":3098,
			"normalized":true,
			"type":"VEC4"
		},
		{
			"bufferView":4,
			"componentType":5123,
			"count":3098,
			"normalized":true,
			"type":"VEC4"
		},
		{
			"bufferView":5,
			"componentType":5121,
			"count":3098,
			"type":"VEC4"
		},
		{
			"bufferView":6,
			"componentType":5126,
			"count":3098,
			"type":"VEC4"
		},
		{
			"bufferView":7,
			"componentType":5123,
			"count":5988,
			"type":"SCALAR"
		},
		{
			"bufferView":8,
			"componentType":5126,
			"count":46,
			"type":"MAT4"
		}
	],
	"bufferViews":[
		{
			"buffer":0,
			"byteLength":37176,
			"byteOffset":0,
			"target":34962
		},
		{
			"buffer":0,
			"byteLength":37176,
			"byteOffset":37176,
			"target":34962
		},
		{
			"buffer":0,
			"byteLength":24784,
			"byteOffset":74352,
			"target":34962
		},
		{
			"buffer":0,
			"byteLength":12392,
			"byteOffset":99136,
			"target":34962
		},
		{
			"buffer":0,
			"byteLength":24784,
			"byteOffset":111528,
			"target":34962
		},
		{
			"buffer":0,
			"byteLength":12392,
			"byteOffset":136312,
			"target":34962
		},
		{
			"buffer":0,
			"byteLength":49568,
			"byteOffset":148704,
			"target":34962
		},
		{
			"buffer":0,
			"byteLength":11976,
			"byteOffset":198272,
			"target":34963
		},
		{
			"buffer":0,
			"byteLength":2944,
			"byteOffset":210248
		}
	],
	"buffers":[
		{
			"byteLength":213192,
			"uri":"RedManBabylonJS.bin"
		}
	]
}
